<?xml version="1.0" encoding="UTF-8" standalone="no"?>
<!-- Created with Inkscape (http://www.inkscape.org/) -->

<svg
   width="247.83572mm"
   height="247.83571mm"
   viewBox="0 0 247.83572 247.83571"
   version="1.1"
   id="svg1"
   xml:space="preserve"
   inkscape:version="1.3 (0e150ed6c4, 2023-07-21)"
   sodipodi:docname="favicon.svg"
   xmlns:inkscape="http://www.inkscape.org/namespaces/inkscape"
   xmlns:sodipodi="http://sodipodi.sourceforge.net/DTD/sodipodi-0.dtd"
   xmlns="http://www.w3.org/2000/svg"
   xmlns:svg="http://www.w3.org/2000/svg"><sodipodi:namedview
     id="namedview1"
     pagecolor="#505050"
     bordercolor="#ffffff"
     borderopacity="1"
     inkscape:showpageshadow="0"
     inkscape:pageopacity="0"
     inkscape:pagecheckerboard="1"
     inkscape:deskcolor="#d1d1d1"
     inkscape:document-units="mm"
     inkscape:zoom="0.74394518"
     inkscape:cx="428.79504"
     inkscape:cy="371.66717"
     inkscape:window-width="2560"
     inkscape:window-height="1377"
     inkscape:window-x="2552"
     inkscape:window-y="-8"
     inkscape:window-maximized="1"
     inkscape:current-layer="layer1" /><defs
     id="defs1"><clipPath
       clipPathUnits="userSpaceOnUse"
       id="clipPath27897"><g
         id="g27901"
         transform="translate(-642.5745,-323.6647)"><path
           d="M 0,800 H 800 V 0 H 0 Z"
           id="path27899" /></g></clipPath><clipPath
       clipPathUnits="userSpaceOnUse"
       id="clipPath27957"><g
         id="g27963"><g
           id="g27961"><path
             d="M 0,800 H 800 V 0 H 0 Z"
             id="path27959" /></g></g></clipPath><clipPath
       clipPathUnits="userSpaceOnUse"
       id="clipPath27975"><g
         id="g27981"><g
           id="g27979"><path
             d="M 0,800 H 800 V 0 H 0 Z"
             id="path27977" /></g></g></clipPath><clipPath
       clipPathUnits="userSpaceOnUse"
       id="clipPath27873"><g
         id="g27877"
         transform="translate(-458.2482,-658.7438)"><path
           d="M 0,800 H 800 V 0 H 0 Z"
           id="path27875" /></g></clipPath><clipPath
       clipPathUnits="userSpaceOnUse"
       id="clipPath27942"><g
         id="g27948"><g
           id="g27946"><path
             d="M 0,800 H 800 V 0 H 0 Z"
             id="path27944" /></g></g></clipPath></defs><g
     inkscape:label="Layer 1"
     inkscape:groupmode="layer"
     id="layer1"
     transform="translate(23.184515,-8.2661276)"><path
       style="fill:#000000"
       d="M 106.31655,232.20494 C 88.964904,230.9188 76.746504,228.65308 63.718634,224.3058 33.427104,214.19778 12.865238,195.03698 6.4502122,170.93961 c -2.611106,-9.80835 -2.651051,-12.87927 -0.56554,-43.47806 1.780909,-26.12965 1.712576,-25.29896 2.418396,-29.399364 2.7516218,-15.98529 12.4154388,-31.13472 26.9728658,-42.28385 17.79795,-13.63097 40.98951,-21.52514 68.909046,-23.45593 5.9642,-0.41246 22.34367,-0.17898 28.19303,0.40187 13.93217,1.38349 27.43532,4.27122 38.47567,8.22827 8.23093,2.9501 17.20551,7.17717 20.48567,9.64885 3.29062,2.47955 5.24287,5.46292 5.71948,8.74034 0.19687,1.35377 -2.90254,47.412034 -3.3079,49.156484 -0.3084,1.32721 -1.3001,3.37172 -2.46054,5.0727 -1.27493,1.86883 -11.22109,11.83214 -13.22117,13.24399 -3.68969,2.60454 -7.28061,3.59121 -12.19992,3.35216 -3.70048,-0.17982 -5.88917,-0.81584 -12.32462,-3.58146 -9.7912,-4.20774 -17.00487,-6.35587 -26.19043,-7.79918 -3.08885,-0.48534 -4.74495,-0.56328 -12.17416,-0.57299 -7.71231,-0.0101 -9.02182,0.0527 -12.7,0.60893 -9.395706,1.42082 -16.753916,4.00632 -22.621866,7.9488 -1.30969,0.87994 -2.79797,1.95441 -3.30729,2.38772 l -0.92605,0.78783 1.5875,1.62927 c 8.30219,8.52064 20.9568,13.49795 37.703126,14.82942 12.42877,0.98818 26.96296,-1.53823 40.07255,-6.96564 7.12961,-2.95167 10.93331,-3.83013 15.46372,-3.57129 4.18604,0.23916 8.20913,1.83594 11.29347,4.48242 1.58556,1.36048 9.59991,10.01291 11.00596,11.88223 1.2582,1.67277 2.25361,3.79333 2.7779,5.91793 0.40118,1.62568 0.35803,2.59074 -1.07895,24.13111 -0.82326,12.34074 -1.60837,23.34729 -1.74469,24.45899 -0.43812,3.57297 -2.23607,6.54251 -5.37602,8.87917 -1.9144,1.42464 -7.4951,4.15731 -12.7504,6.24342 -12.71217,5.04615 -25.87429,8.19119 -41.275,9.8625 -2.84436,0.30868 -7.04208,0.45139 -14.81667,0.50373 -5.96635,0.0402 -11.44323,0.0289 -12.17083,-0.025 z m 18.78542,-9.36508 c 19.72828,-1.07046 39.60775,-5.9653 53.89277,-13.26978 2.34997,-1.20164 4.44785,-2.92492 4.44785,-3.65366 0,-0.14142 -0.92273,0.16607 -2.05052,0.68333 -6.52616,2.99321 -8.05321,3.41335 -9.56499,2.63157 -1.56318,-0.80835 -2.11725,-3.04811 -1.15641,-4.67467 0.49216,-0.83318 0.66711,-0.92697 6.36503,-3.41245 2.07877,-0.90678 4.47758,-2.09983 5.33071,-2.65123 1.5324,-0.99044 1.55246,-1.01961 1.66046,-2.4149 0.0601,-0.7768 0.0919,-1.44239 0.0706,-1.47909 -0.0213,-0.0367 -1.79396,0.70516 -3.93926,1.64858 -7.41493,3.26081 -16.84918,6.48795 -18.96696,6.48795 -1.96183,0 -3.14868,-1.30152 -3.14868,-3.45291 0,-1.6706 1.10306,-2.61674 4.10104,-3.51764 8.26589,-2.48392 19.5666,-7.1744 21.78741,-9.04309 0.72764,-0.61227 0.83447,-0.8685 0.83447,-2.00155 0,-0.71467 -0.0406,-1.2994 -0.0901,-1.2994 -0.0496,0 -1.84586,0.77211 -3.99175,1.7158 -7.1357,3.13802 -14.66177,5.69751 -22.50875,7.65486 -5.08663,1.26881 -10.16239,2.27101 -11.50179,2.27101 -2.71198,0 -4.30619,-2.68897 -2.93117,-4.94405 0.70534,-1.15678 1.11307,-1.3282 4.97412,-2.0913 9.41577,-1.86094 18.02856,-4.39827 26.12759,-7.69721 3.82688,-1.55878 7.54063,-3.29038 7.54063,-3.51594 0,-0.0991 -0.26789,-0.42473 -0.59531,-0.72372 l -0.59532,-0.54363 -3.43958,1.3863 c -18.4091,7.41968 -40.18231,11.17122 -61.64792,10.62198 -35.957686,-0.92006 -65.036406,-10.47835 -85.328116,-28.04769 l -2.77812,-2.40541 1.6251,1.84857 c 8.98493,10.22039 24.10859,19.43805 40.19232,24.49666 1.44882,0.45568 2.62687,1.00046 2.98288,1.37941 1.80537,1.92173 0.80514,5.15833 -1.74177,5.63614 -0.71,0.13319 -1.72288,-0.087 -4.27962,-0.93049 -17.52799,-5.78245 -33.20092,-15.6001 -42.694405,-26.74411 -2.867363,-3.36588 -2.98535,-3.48799 -2.560989,-2.65051 2.371849,4.68087 10.085944,13.47709 15.869184,18.09531 12.34029,9.85434 29.76669,17.24579 49.08021,20.81749 2.47385,0.45749 4.71265,0.94562 4.9751,1.08472 0.79511,0.42143 1.50515,1.86121 1.5062,3.05421 10e-4,1.40123 -1.18112,2.88574 -2.49466,3.13216 -1.60587,0.30127 -12.49428,-1.99254 -20.08619,-4.23145 -20.04221,-5.91059 -37.16881,-16.24376 -47.607098,-28.72327 -2.476184,-2.96041 -2.517817,-2.99721 -1.646174,-1.45521 4.096514,7.24704 12.371732,15.72318 21.076432,21.58817 16.59596,11.18191 39.79711,18.0232 65.914926,19.43622 3.66172,0.1981 4.69847,0.57741 5.40735,1.97834 0.78193,1.5453 0.15761,3.63029 -1.31508,4.39185 -2.08515,1.07827 -18.968186,-0.59547 -31.011386,-3.07439 -21.36082,-4.39681 -40.45261,-13.48646 -53.03935,-25.25217 -1.36973,-1.28038 -1.39746,-1.29314 -0.6139,-0.2826 1.06991,1.37983 6.32734,6.52813 8.55534,8.37773 12.56966,10.43487 31.24279,18.1847 52.09828,21.62211 11.910696,1.96312 25.588746,2.7573 36.909376,2.14305 z m 10.18646,-45.35625 c 15.59093,-1.60327 30.16174,-5.33773 43.12708,-11.05336 6.11841,-2.69723 7.9375,-4.03864 7.9375,-5.85319 0,-1.30256 -1.05593,-2.73704 -5.88421,-7.99375 -5.40391,-5.88341 -6.54372,-6.72289 -9.86115,-7.26282 -2.86336,-0.46602 -5.74363,0.24135 -12.78201,3.13917 -16.47835,6.78442 -34.25526,9.02902 -51.46163,6.49779 -18.109836,-2.66414 -32.448946,-10.65534 -40.699286,-22.68177 -8.43484,-12.29537 -9.57178,-28.31025 -2.95267,-41.591224 7.57626,-15.20144 23.93202,-24.57477 46.382626,-26.58143 3.91903,-0.35029 14.75933,-0.35224 18.29436,-0.003 10.30742,1.01745 21.62361,4.0392 31.79675,8.49065 7.03324,3.07752 7.59868,3.2512 10.63076,3.2652 2.45097,0.0113 2.78224,-0.0517 4.49792,-0.85627 1.65209,-0.77473 2.38828,-1.41755 6.81779,-5.95313 7.24687,-7.42041 7.56257,-8.03627 5.25813,-10.25745 -2.46911,-2.37991 -14.05779,-7.60063 -23.09841,-10.40587 -15.15389,-4.70215 -30.1129,-6.85382 -47.71501,-6.86322 -9.42175,-0.005 -14.92547,0.34587 -22.488066,1.43378 -33.98204,4.88848 -59.76464,20.41528 -70.769946,42.6191 -4.056726,8.18466 -5.808295,16.390554 -5.49054,25.722504 0.285294,8.37861 2.13667,15.57264 5.901987,22.93378 3.032437,5.92837 5.961039,9.8467 11.464889,15.33947 6.3447,6.33192 12.15705,10.45722 21.05668,14.94493 14.83167,7.47898 32.20397,11.81652 53.445826,13.34442 4.94086,0.35539 21.80418,0.11821 26.59063,-0.374 z m 34.98569,-57.18723 c 0.60904,-0.21488 1.6482,-0.73864 2.30926,-1.16391 1.37715,-0.88596 4.12479,-3.62934 3.31859,-3.31344 -0.29105,0.11404 -1.30308,0.51502 -2.24896,0.89108 -1.59214,0.63299 -2.0242,0.68336 -5.82083,0.67859 -3.7165,-0.005 -4.32433,-0.0736 -6.4823,-0.73494 -3.14909,-0.96511 -5.87047,-2.23284 -6.49354,-3.02495 -1.18447,-1.50581 -0.77317,-3.8208 0.85523,-4.8136 1.23023,-0.75006 2.1461,-0.67282 4.78651,0.40367 5.75592,2.34666 10.48192,2.2188 13.93667,-0.37704 1.62405,-1.22029 10.85992,-10.724634 10.85992,-11.175594 0,-0.17427 -1.23284,0.88262 -2.73964,2.348634 -3.88333,3.77819 -6.71906,5.41627 -10.60426,6.12565 -4.6724,0.8531 -8.99652,-0.0129 -16.42172,-3.28875 -1.89177,-0.83462 -4.8075,-2.03986 -6.47939,-2.67832 -3.44857,-1.316944 -4.21171,-1.919264 -4.42246,-3.490514 -0.28095,-2.09465 1.10794,-3.82169 3.07342,-3.82169 1.15812,0 4.69556,1.28145 10.20455,3.69664 4.99707,2.19075 6.26216,2.62321 8.81857,3.01455 1.55602,0.2382 2.47599,0.24221 3.75803,0.0164 2.98052,-0.52501 4.25997,-1.35873 8.52905,-5.55772 2.14643,-2.11119 3.9026,-3.93926 3.9026,-4.06237 0,-0.12312 -0.79782,0.45297 -1.77295,1.2802 -3.11221,2.64017 -7.75379,4.34338 -11.77579,4.32108 -4.80774,-0.0267 -12.03188,-2.43694 -13.37261,-4.46167 -1.16833,-1.76438 -0.50421,-4.27025 1.36707,-5.15822 1.2931,-0.61361 1.86096,-0.54335 4.93553,0.61068 5.13019,1.92562 8.50772,2.11064 11.65242,0.63831 1.56774,-0.73399 5.25218,-3.79773 4.07154,-3.38562 -0.29104,0.10159 -1.12915,0.40142 -1.86247,0.66629 -4.84466,1.74986 -11.07421,1.04742 -17.89422,-2.01774 -16.20859,-7.28473 -29.90286,-10.06074 -45.1378,-9.15005 -9.04762,0.54084 -15.254346,1.77198 -21.895966,4.3432 -4.59873,1.78033 -9.43343,4.63585 -12.20327,7.2076 l -1.28335,1.19157 2.46502,-1.43463 c 7.80941,-4.54501 17.69695,-7.38998 28.968136,-8.33509 3.01491,-0.2528 4.13091,-0.0971 5.01059,0.69899 1.9088,1.72743 1.53586,5.1039 -0.66465,6.01746 -0.46975,0.19502 -2.40191,0.49039 -4.29368,0.65636 -11.615006,1.01907 -20.766286,3.84341 -27.951046,8.6265 -2.90287,1.93252 -6.53944,5.24471 -8.36934,7.6228 l -1.21377,1.577394 1.70145,-1.33018 c 6.74451,-5.272774 15.0141,-8.916554 24.72021,-10.892314 6.112416,-1.24423 16.440506,-2.0275 21.876316,-1.65908 2.94509,0.19961 3.80778,0.64369 4.43089,2.28085 0.51752,1.35974 -0.0105,2.91814 -1.27707,3.76896 -0.8599,0.57766 -1.12472,0.60398 -6.08542,0.60484 -20.805586,0.004 -35.793216,5.52717 -44.817006,16.516854 -0.82798,1.00835 -1.45256,1.88623 -1.38795,1.95083 0.0646,0.0646 0.68818,-0.38597 1.38572,-1.00127 3.72064,-3.28196 10.38418,-6.87651 16.6141,-8.96224 7.811,-2.61506 14.494456,-3.686144 24.473956,-3.922144 8.63208,-0.20414 18.38741,0.61974 20.62042,1.741484 1.90532,0.95713 2.33937,3.34508 0.91559,5.03714 -1.01975,1.21191 -1.89991,1.33204 -5.66749,0.77355 -9.99283,-1.48127 -21.51252,-1.21116 -30.938886,0.72547 -6.09453,1.2521 -12.63562,3.72058 -17.07651,6.44434 -2.07573,1.27313 -5.8072,4.12137 -6.61458,5.04894 -0.57346,0.65883 -0.45666,0.60809 1.5875,-0.68966 6.70534,-4.25693 16.66445,-7.44066 27.384376,-8.75424 5.40807,-0.66268 17.69344,-0.6619 22.88645,10e-4 11.02439,1.40827 20.17248,4.05103 32.04899,9.25854 5.75521,2.5235 8.64865,2.98205 11.80025,1.8701 z"
       id="path2" /></g></svg>
